<svg width="98" height="148" viewBox="0 0 98 148" fill="none" xmlns="http://www.w3.org/2000/svg">
<path d="M48.1797 147.051C39.5208 147.051 31.1875 145.781 23.1797 143.242C15.1719 140.703 7.52214 136.797 0.230469 131.523V101.152H15.1719L18.3945 123.516C22.6263 126.12 27.2161 128.138 32.1641 129.57C37.112 131.003 42.4505 131.719 48.1797 131.719C54.6901 131.719 60.1914 130.742 64.6836 128.789C69.2409 126.771 72.724 124.004 75.1328 120.488C77.5417 116.973 78.7461 112.871 78.7461 108.184C78.7461 103.822 77.7044 99.9805 75.6211 96.6602C73.5378 93.3398 70.0872 90.4427 65.2695 87.9688C60.5169 85.4297 54.0065 83.2161 45.7383 81.3281C35.9727 79.0495 27.7044 76.0221 20.9336 72.2461C14.2279 68.4049 9.11719 63.7826 5.60156 58.3789C2.15104 52.9102 0.425781 46.6602 0.425781 39.6289C0.425781 32.207 2.37891 25.5664 6.28516 19.707C10.2565 13.8477 15.7578 9.22526 22.7891 5.83984C29.8203 2.45443 38.0234 0.761719 47.3984 0.761719C57.3594 0.761719 66.1484 2.29167 73.7656 5.35156C81.4479 8.34635 87.763 11.9922 92.7109 16.2891V44.707H77.7695L74.5469 24.3945C71.6172 22.0508 67.9714 20.0977 63.6094 18.5352C59.2474 16.9727 53.8438 16.1914 47.3984 16.1914C41.9297 16.1914 37.112 17.168 32.9453 19.1211C28.7786 21.0091 25.5234 23.6784 23.1797 27.1289C20.8359 30.5794 19.6641 34.6484 19.6641 39.3359C19.6641 43.4375 20.7057 47.0182 22.7891 50.0781C24.9375 53.138 28.388 55.8398 33.1406 58.1836C37.9583 60.4622 44.3711 62.6107 52.3789 64.6289C67.3529 68.3398 78.681 73.8411 86.3633 81.1328C94.1107 88.3594 97.9844 97.3112 97.9844 107.988C97.9844 115.605 95.9336 122.376 91.832 128.301C87.7305 134.16 81.9362 138.75 74.4492 142.07C67.0273 145.391 58.2708 147.051 48.1797 147.051Z" fill="white"/>
</svg>
