<svg width="129" height="125" viewBox="0 0 129 125" fill="none" xmlns="http://www.w3.org/2000/svg">
<path d="M128.4 0.599992V14.8H107.4V125H92V98L95.6 108.6C90.9333 101.533 86.2 95 81.4 89C76.7333 83 71.7333 78.1333 66.4 74.4C61.2 70.6667 55.4667 68.8 49.2 68.8C44.2667 68.8 40.0667 70.0667 36.6 72.6C33.2667 75.1333 31.6 78.9333 31.6 84C31.6 88.4 33.2 92.1333 36.4 95.2C39.6 98.1333 44.3333 100.667 50.6 102.8L45.6 118.2C38.4 115.667 32.5333 112.6 28 109C23.6 105.4 20.3333 101.467 18.2 97.2C16.2 92.8 15.2 88.2 15.2 83.4C15.2 77 16.7333 71.6667 19.8 67.4C23 63.1333 27 59.9333 31.8 57.8C36.7333 55.5333 41.6667 54.4 46.6 54.4C54.6 54.4 61.6 55.8667 67.6 58.8C73.7333 61.7333 79.0667 65.6667 83.6 70.6C88.2667 75.5333 92.4667 81.0667 96.2 87.2L92.8 87.8C92.5333 84.7333 92.3333 81.6667 92.2 78.6C92.0667 75.4 92 72.1333 92 68.8V14.8H-1.41561e-07V0.599992H128.4ZM61.8 60.4C61.8 61.2 61.7333 62 61.6 62.8C61.6 63.6 61.5333 64.4 61.4 65.2L46.2 60.6C45.9333 52.8667 44.6 46.6667 42.2 42C39.8 37.3333 36 33.8 30.8 31.4C25.6 28.8667 18.5333 27.1333 9.6 26.2L12.2 11.8L21.4 14.4C27.8 14.9333 33.4667 16.2667 38.4 18.4C43.4667 20.4 47.7333 23.2667 51.2 27C54.6667 30.7333 57.2667 35.4 59 41C60.8667 46.4667 61.8 52.9333 61.8 60.4Z" fill="black"/>
</svg>
