<svg width="141" height="125" viewBox="0 0 141 125" fill="none" xmlns="http://www.w3.org/2000/svg">
<path d="M140.4 0.599992V14.8H119.4V125H104V54.4L108.6 67C104.467 61.5333 100.867 57.3333 97.8 54.4C94.8667 51.4667 92 50 89.2 50C87.3333 50 85.6 50.5333 84 51.6C82.4 52.6667 80.6 54.7333 78.6 57.8C76.6 60.7333 73.9333 65.2667 70.6 71.4C67 77.9333 63.7333 83.3333 60.8 87.6C57.8667 91.7333 54.7333 94.8 51.4 96.8C48.2 98.6667 44.2667 99.6 39.6 99.6C36 99.6 32.5333 98.8667 29.2 97.4C26 95.9333 22.7333 93.5333 19.4 90.2C16.2 86.7333 12.7333 82.0667 9 76.2L21.2 68.8C24.8 75.2 27.8 79.4 30.2 81.4C32.6 83.4 35.2 84.4 38 84.4C40.2667 84.4 42.4 83.7333 44.4 82.4C46.5333 80.9333 48.8 78.4667 51.2 75C53.7333 71.5333 56.6 66.8 59.8 60.8L64.4 54.2C67.8667 47 71.2 42.0667 74.4 39.4C77.6 36.6 81.1333 35.2 85 35.2C89.4 35.2 93.3333 36.4667 96.8 39C100.4 41.4 104.533 45.1333 109.2 50.2L105.2 50.4C104.667 47.3333 104.333 44.4667 104.2 41.8C104.067 39 104 36.2 104 33.4V14.8H-1.41561e-07V0.599992H140.4ZM56.2 70.8C54.8667 61.7333 53.4667 54.5333 52 49.2C50.6667 43.8667 48.2667 39.7333 44.8 36.8C41.4667 33.7333 36.9333 31.4667 31.2 30C25.4667 28.4 18.2667 27.0667 9.6 26L12.6 10.8L23.4 14.8C31 16 37.3333 17.5333 42.4 19.4C47.4667 21.2667 51.5333 23.7333 54.6 26.8C57.8 29.7333 60.2 33.4 61.8 37.8C63.4 42.2 64.4667 47.5333 65 53.8L56.2 70.8Z" fill="black"/>
</svg>
